<?xml version="1.0" encoding="UTF-8" standalone="no"?>
<!-- Created with Inkscape (http://www.inkscape.org/) -->

<svg
   width="500.0px"
   height="500.0px"
   viewBox="0 0 500.0 500.0"
   version="1.1"
   id="SVGRoot"
   sodipodi:docname="favicon.svg"
   inkscape:version="1.1.1 (3bf5ae0d25, 2021-09-20)"
   xmlns:inkscape="http://www.inkscape.org/namespaces/inkscape"
   xmlns:sodipodi="http://sodipodi.sourceforge.net/DTD/sodipodi-0.dtd"
   xmlns="http://www.w3.org/2000/svg"
   xmlns:svg="http://www.w3.org/2000/svg">
  <sodipodi:namedview
     id="namedview343"
     pagecolor="#ffffff"
     bordercolor="#666666"
     borderopacity="1.0"
     inkscape:pageshadow="2"
     inkscape:pageopacity="0.0"
     inkscape:pagecheckerboard="0"
     inkscape:document-units="px"
     showgrid="true"
     inkscape:zoom="0.72337262"
     inkscape:cx="397.44385"
     inkscape:cy="434.76902"
     inkscape:window-width="1920"
     inkscape:window-height="1001"
     inkscape:window-x="-9"
     inkscape:window-y="-9"
     inkscape:window-maximized="1"
     inkscape:current-layer="layer1">
    <inkscape:grid
       type="xygrid"
       id="grid349" />
  </sodipodi:namedview>
  <defs
     id="defs338" />
  <g
     inkscape:label="Слой 1"
     inkscape:groupmode="layer"
     id="layer1">
    <path
       fill="#00143b"
       d="M 497.04707,341.90346 319.64681,52.240649 A 21.438097,20.164482 0 0 0 300.6741,42.158405 H 199.2719 A 21.438097,20.164482 0 0 0 180.29919,52.240649 L 2.791734,341.90346 a 21.974049,20.668595 0 0 0 0,20.16445 l 50.701096,83.38017 a 21.438097,20.164482 0 0 0 18.972724,10.08221 H 427.26606 a 21.438097,20.164482 0 0 0 18.97271,-10.08221 l 50.70111,-82.6744 a 21.974049,20.668595 0 0 0 0.10715,-20.87022 z M 165.61409,214.46393 211.92038,138.8471 a 43.840907,41.236367 0 0 1 75.99805,0 l 9.32558,15.22419 -21.43811,34.48126 -19.50867,-32.46483 a 7.2889536,6.8559243 0 0 0 -12.64847,0 l -56.91815,92.75666 z m 235.81906,151.23361 a 44.055289,41.438013 0 0 1 -38.05261,20.1645 H 192.84047 l 21.4381,-34.48127 h 150.06669 a 7.2889536,6.8559243 0 0 0 6.32424,-10.08225 l -19.1871,-31.25495 h 41.80428 l 8.57524,14.41759 a 44.162479,41.538835 0 0 1 0,41.53884 z"
       id="path25"
       style="stroke-width:10.3957" />
    <path
       fill="#6693f7"
       d="M 212.13476,300.3646 H 101.94294 a 7.2889536,6.8559243 0 0 0 -6.324262,10.08225 l 5.466742,8.97321 41.05395,67.04687 8.57525,13.91352 a 7.2889536,6.8559243 0 0 0 12.64846,0 l 8.57524,-13.91352 21.43811,-34.48122 25.40414,-41.53886 a 7.2889536,6.8559243 0 0 0 -6.64581,-10.08225 z"
       id="path27"
       style="stroke-width:10.3957" />
    <path
       fill="#ff9933"
       d="M 479.89661,283.02318 365.95311,97.308266 a 7.2889536,6.8559243 0 0 0 -12.64847,0 l -45.34159,74.003674 -21.4381,34.48122 -47.3782,77.33084 a 7.2889536,6.8559243 0 0 0 6.32424,10.08221 h 228.10138 a 7.2889536,6.8559243 0 0 0 6.32424,-10.18303 z"
       id="path29"
       style="stroke-width:10.3957" />
  </g>
</svg>
